<svg width="588" height="574" viewBox="0 0 588 574" fill="none" xmlns="http://www.w3.org/2000/svg">
<path d="M182.656 25L177.875 8.03125H181.156L184.227 20.5234H184.391L187.648 8.03125H190.648L193.93 20.5469H194.07L197.141 8.03125H200.422L195.641 25H192.617L189.219 13.0703H189.102L185.68 25H182.656ZM206.562 25.2578C202.719 25.2578 200.375 22.7031 200.375 18.7188C200.375 14.7812 202.766 12.1094 206.398 12.1094C209.516 12.1094 212.211 14.0547 212.211 18.5312V19.4688H203.328C203.363 21.6367 204.641 22.9141 206.586 22.9141C207.898 22.9141 208.789 22.3516 209.164 21.6016H212.094C211.555 23.8047 209.516 25.2578 206.562 25.2578ZM203.352 17.4297H209.352C209.328 15.6953 208.18 14.4297 206.445 14.4297C204.641 14.4297 203.445 15.8008 203.352 17.4297ZM217.531 8.03125V25H214.531V8.03125H217.531ZM225.945 25.2578C222.148 25.2578 219.852 22.5391 219.852 18.6953C219.852 14.8047 222.219 12.1094 225.945 12.1094C229.039 12.1094 231.195 13.9141 231.406 16.6562H228.547C228.312 15.4375 227.422 14.5 225.969 14.5C224.117 14.5 222.875 16.0703 222.875 18.625C222.875 21.25 224.094 22.8203 225.969 22.8203C227.305 22.8203 228.289 22.0469 228.547 20.6641H231.406C231.172 23.3594 229.133 25.2578 225.945 25.2578ZM239.211 25.2578C235.508 25.2578 233.117 22.6328 233.117 18.6953C233.117 14.7344 235.508 12.1094 239.211 12.1094C242.938 12.1094 245.305 14.7344 245.305 18.6953C245.305 22.6328 242.938 25.2578 239.211 25.2578ZM239.234 22.8672C241.273 22.8672 242.281 21.0156 242.281 18.6719C242.281 16.3516 241.273 14.4766 239.234 14.4766C237.148 14.4766 236.141 16.3516 236.141 18.6719C236.141 21.0156 237.148 22.8672 239.234 22.8672ZM247.625 25V12.2734H250.484V14.4297H250.648C251.164 12.9766 252.453 12.1094 254.141 12.1094C255.875 12.1094 257.094 12.9766 257.586 14.4297H257.727C258.289 13.0234 259.695 12.1094 261.547 12.1094C263.867 12.1094 265.508 13.6094 265.508 16.4453V25H262.531V16.9141C262.531 15.3203 261.57 14.6172 260.352 14.6172C258.875 14.6172 258.031 15.625 258.031 17.0547V25H255.125V16.7969C255.125 15.4844 254.234 14.6172 252.969 14.6172C251.68 14.6172 250.625 15.6719 250.625 17.2656V25H247.625ZM274.016 25.2578C270.172 25.2578 267.828 22.7031 267.828 18.7188C267.828 14.7812 270.219 12.1094 273.852 12.1094C276.969 12.1094 279.664 14.0547 279.664 18.5312V19.4688H270.781C270.816 21.6367 272.094 22.9141 274.039 22.9141C275.352 22.9141 276.242 22.3516 276.617 21.6016H279.547C279.008 23.8047 276.969 25.2578 274.016 25.2578ZM270.805 17.4297H276.805C276.781 15.6953 275.633 14.4297 273.898 14.4297C272.094 14.4297 270.898 15.8008 270.805 17.4297ZM294.031 12.2734V14.5703H291.523V21.1797C291.523 22.3984 292.133 22.6562 292.883 22.6562C293.234 22.6562 293.82 22.6328 294.195 22.6094V25.0469C293.844 25.1172 293.258 25.1641 292.508 25.1641C290.258 25.1641 288.523 24.0625 288.547 21.6719V14.5703H286.719V12.2734H288.547V9.22656H291.523V12.2734H294.031ZM301.742 25.2578C298.039 25.2578 295.648 22.6328 295.648 18.6953C295.648 14.7344 298.039 12.1094 301.742 12.1094C305.469 12.1094 307.836 14.7344 307.836 18.6953C307.836 22.6328 305.469 25.2578 301.742 25.2578ZM301.766 22.8672C303.805 22.8672 304.812 21.0156 304.812 18.6719C304.812 16.3516 303.805 14.4766 301.766 14.4766C299.68 14.4766 298.672 16.3516 298.672 18.6719C298.672 21.0156 299.68 22.8672 301.766 22.8672ZM331.836 5.89844V10.4922H334.789V12.625H331.836V17.0781H329.234V5.89844H331.836ZM326.117 7.375C326.094 12.8594 322.555 16.2109 316.18 17.4766L315.078 15.3906C320.375 14.418 322.895 12.1211 323.211 9.4375H316.086V7.375H326.117ZM331.906 17.9453V19.8672H320.68V21.4141H331.695V23.2891H320.68V24.8828H332.398V26.8281H318.055V17.9453H331.906ZM353.492 5.89844V27.1094H350.867V5.89844H353.492ZM342.078 7.44531C345.266 7.44531 347.586 10.3516 347.609 14.9219C347.586 19.5391 345.266 22.4219 342.078 22.4219C338.867 22.4219 336.547 19.5391 336.547 14.9219C336.547 10.3516 338.867 7.44531 342.078 7.44531ZM342.078 9.78906C340.273 9.78906 339.055 11.6875 339.055 14.9219C339.055 18.1797 340.273 20.0781 342.078 20.0781C343.859 20.0781 345.078 18.1797 345.078 14.9219C345.078 11.6875 343.859 9.78906 342.078 9.78906ZM372.617 7.04688V9.13281H365.703V13.8438C369.559 13.8203 371.867 13.668 374.492 13.1406L374.773 15.1562C371.938 15.8125 369.336 15.8828 364.836 15.8828H363.125V7.04688H372.617ZM379.016 5.89844V10.0703H381.969V12.2031H379.016V16.4922H376.414V5.89844H379.016ZM379.016 17.4062V23.0312H367.766V24.7188H379.672V26.8281H365.188V21.0625H376.414V19.4922H365.164V17.4062H379.016ZM401.164 5.92188V18.4609H398.68V13.1406H396.477V18.25H394.039V6.32031H396.477V11.0312H398.68V5.92188H401.164ZM401.164 19.3516V26.8281H386.867V19.3516H401.164ZM389.469 21.4375V24.7188H398.586V21.4375H389.469ZM391.977 7.21094V13.3281H386.469V15.625C388.93 15.6016 390.805 15.4961 392.961 15.0625L393.195 17.125C390.641 17.5938 388.484 17.6641 385.391 17.6406H383.938V11.3828H389.469V9.27344H383.914V7.21094H391.977ZM408.148 8.03125L407.891 20.0078H405.242L404.961 8.03125H408.148ZM406.578 25.1875C405.57 25.1875 404.75 24.3672 404.75 23.3594C404.75 22.375 405.57 21.5547 406.578 21.5547C407.539 21.5547 408.383 22.375 408.383 23.3594C408.383 24.3672 407.539 25.1875 406.578 25.1875Z" fill="#1F2937"/>
<path d="M226.328 45.3281V50.75H228.578V52H226.328V59.3281H224.844V45.3281H226.328ZM217.422 46.5V50.0938H221.125V46.5H222.594V56H215.953V46.5H217.422ZM217.422 54.7812H221.125V51.2656H217.422V54.7812ZM242.047 52.6719V53.875H229.234V52.6719H242.047ZM240.656 57.8281V59.0312H230.828V54.9844H232.312V57.8281H240.656ZM231.781 45.8438V47.4844H233.734V45.8438H235.125V51.5156H230.375V45.8438H231.781ZM231.781 50.3125H233.734V48.6406H231.781V50.3125ZM237.547 45.8438V47.4844H239.469V45.8438H240.891V51.5156H236.125V45.8438H237.547ZM237.547 50.3125H239.469V48.6406H237.547V50.3125ZM250.953 45.7969C253.062 45.8125 254.609 47.1094 254.625 48.9375C254.609 50.7812 253.062 52.0625 250.953 52.0625C248.828 52.0625 247.266 50.7812 247.266 48.9375C247.266 47.1094 248.828 45.8125 250.953 45.7969ZM250.953 47.0469C249.656 47.0312 248.703 47.7969 248.719 48.9375C248.703 50.0938 249.656 50.8594 250.953 50.8594C252.234 50.8594 253.188 50.0938 253.188 48.9375C253.188 47.7969 252.234 47.0312 250.953 47.0469ZM258.594 45.3281V52.4531H257.109V45.3281H258.594ZM258.594 53.0938V56.625H250.875V57.9688H259.062V59.1562H249.438V55.5156H257.125V54.2812H249.391V53.0938H258.594ZM265.641 47.5625C265.641 49.4062 266.922 51.1094 269.016 51.7969L268.219 52.9688C266.688 52.4297 265.539 51.3359 264.938 49.9531C264.32 51.5234 263.133 52.75 261.5 53.3594L260.703 52.1719C262.891 51.3906 264.156 49.5312 264.172 47.4375V46.0625H265.641V47.5625ZM271.812 45.3281V48.8438H273.844V50.0938H271.812V53.7812H270.328V45.3281H271.812ZM267.297 54.1094C270.172 54.1094 271.938 55.0625 271.938 56.7031C271.938 58.3594 270.172 59.3125 267.297 59.2969C264.391 59.3125 262.594 58.3594 262.594 56.7031C262.594 55.0625 264.391 54.1094 267.297 54.1094ZM267.297 55.2812C265.266 55.2812 264.062 55.8125 264.078 56.7031C264.062 57.625 265.266 58.125 267.297 58.1406C269.312 58.125 270.484 57.625 270.484 56.7031C270.484 55.8125 269.312 55.2812 267.297 55.2812ZM291.344 52.2812V53.5H278.547V52.2812H284.188V50.2344H285.656V52.2812H291.344ZM285.672 46.1406C285.672 47.9219 287.859 49.4844 290.562 49.8281L289.984 51C287.758 50.6484 285.797 49.5625 284.922 48.0156C284.023 49.5625 282.062 50.6484 279.828 51L279.281 49.8281C281.969 49.4844 284.156 47.9062 284.172 46.1406V45.5469H285.672V46.1406ZM289.75 54.7344V59.3281H288.25V55.9062H279.969V54.7344H289.75ZM301.156 47.7812C301.141 49.5625 302.391 51.2344 304.547 51.9219L303.797 53.1094C302.203 52.5781 301.039 51.5 300.422 50.1406C299.805 51.6484 298.586 52.8594 296.922 53.4375L296.156 52.2344C298.359 51.5156 299.656 49.7188 299.656 47.7969V47.4531H296.594V46.25H304.172V47.4531H301.156V47.7812ZM307.281 45.3281V48.7188H309.312V49.9375H307.281V53.5312H305.797V45.3281H307.281ZM307.281 54.1406V59.1562H298.344V54.1406H307.281ZM299.797 55.3125V57.9531H305.812V55.3125H299.797ZM314.281 46.5C314.266 49.3906 313.438 51.6562 311.078 53.5312L310.078 52.5781C311.852 51.25 312.68 49.7969 312.875 47.7188H310.531V46.5H314.281ZM318.234 46.5C318.234 49.5 317.531 52.0469 315.016 54.1406L314.016 53.2188C315.898 51.6953 316.648 49.9453 316.828 47.7188H314.812V46.5H318.234ZM321.109 45.3125V49.6875H323.141V50.9531H321.109V55.5781H319.625V45.3125H321.109ZM321.641 57.8281V59.0312H312.141V54.7188H313.625V57.8281H321.641ZM328.5 46.3281C330.719 46.3125 332.297 47.6875 332.312 49.6562C332.297 51.625 330.719 53 328.5 53C326.297 53 324.672 51.625 324.688 49.6562C324.672 47.6875 326.297 46.3125 328.5 46.3281ZM328.5 47.6094C327.141 47.6094 326.141 48.4219 326.156 49.6562C326.141 50.8906 327.141 51.7031 328.5 51.7031C329.859 51.7031 330.859 50.8906 330.859 49.6562C330.859 48.4219 329.859 47.6094 328.5 47.6094ZM335.516 45.3281V59.3594H334.031V45.3281H335.516ZM324.016 55.1094C326.562 55.1094 330.094 55.0781 333.156 54.6406L333.266 55.7188C330.094 56.3281 326.703 56.3438 324.203 56.3438L324.016 55.1094ZM353.719 46.8281V48.0156H342.328V46.8281H347.312V45.2656H348.781V46.8281H353.719ZM354.484 54.2812V55.4844H351.25V59.3438H349.75V55.4844H346.375V59.3438H344.891V55.4844H341.672V54.2812H354.484ZM348.047 48.7344C350.953 48.7344 352.703 49.5625 352.703 51.0781C352.703 52.5781 350.953 53.4219 348.047 53.4219C345.125 53.4219 343.375 52.5781 343.391 51.0781C343.375 49.5625 345.125 48.7344 348.047 48.7344ZM348.047 49.8594C346.031 49.875 344.922 50.2812 344.922 51.0781C344.922 51.8594 346.031 52.2812 348.047 52.2812C350.047 52.2812 351.156 51.8594 351.172 51.0781C351.156 50.2812 350.047 49.875 348.047 49.8594ZM360.594 47.3438C360.578 49.2812 361.906 51.0469 364.062 51.7656L363.312 52.9375C361.695 52.3672 360.477 51.2266 359.844 49.7656C359.219 51.3359 357.992 52.5781 356.328 53.1719L355.578 52.0156C357.766 51.2344 359.078 49.3438 359.078 47.3438V46H360.594V47.3438ZM367.109 54.4062V59.3281H365.625V55.6094H357.625V54.4062H367.109ZM367.109 45.3281V53.7344H365.625V45.3281H367.109ZM371.844 56.9219L370.594 61.2344H369.266L370.094 56.9219H371.844ZM201.5 69.3281V83.3594H200.016V69.3281H201.5ZM194.016 70.375C196.094 70.375 197.625 72.2812 197.625 75.2812C197.625 78.2969 196.094 80.2031 194.016 80.2031C191.906 80.2031 190.391 78.2969 190.391 75.2812C190.391 72.2812 191.906 70.375 194.016 70.375ZM194.016 71.7031C192.719 71.7031 191.828 73.0781 191.828 75.2812C191.828 77.5 192.719 78.875 194.016 78.875C195.297 78.875 196.188 77.5 196.188 75.2812C196.188 73.0781 195.297 71.7031 194.016 71.7031ZM215.75 69.3281V83.3281H214.328V69.3281H215.75ZM212.906 69.625V82.625H211.5V75.5H209.328V74.2812H211.5V69.625H212.906ZM207.953 73.2344C207.953 75.625 208.922 78.0156 210.891 79.1562L210 80.25C208.664 79.4531 207.742 78.0391 207.266 76.3438C206.758 78.1719 205.805 79.7266 204.438 80.5781L203.531 79.4688C205.516 78.2656 206.531 75.7188 206.531 73.2344V72.1094H203.953V70.9062H210.359V72.1094H207.953V73.2344ZM228.891 73.4219V74.6094H219.25V69.8281H220.719V73.4219H228.891ZM230.359 76.375V77.5625H217.547V76.375H230.359ZM228.984 81.7812V83H219.141V78.8906H220.625V81.7812H228.984ZM246.297 69.3281V72.4844H248.328V73.6875H246.297V76.7656H244.812V69.3281H246.297ZM242.516 70.2969C242.516 73.875 240.094 76.1406 235.938 77.0312L235.312 75.8281C238.844 75.1172 240.672 73.4688 240.875 71.4844H235.938V70.2969H242.516ZM246.359 77.3594V78.4844H238.797V79.6875H246.203V80.7656H238.797V82.0312H246.672V83.1562H237.312V77.3594H246.359ZM260.719 69.3281V83.3594H259.234V69.3281H260.719ZM253.234 70.375C255.312 70.375 256.844 72.2812 256.844 75.2812C256.844 78.2969 255.312 80.2031 253.234 80.2031C251.125 80.2031 249.609 78.2969 249.609 75.2812C249.609 72.2812 251.125 70.375 253.234 70.375ZM253.234 71.7031C251.938 71.7031 251.047 73.0781 251.047 75.2812C251.047 77.5 251.938 78.875 253.234 78.875C254.516 78.875 255.406 77.5 255.406 75.2812C255.406 73.0781 254.516 71.7031 253.234 71.7031ZM273.703 70.1094V71.2969H268.922V74.7031C271.562 74.7109 273.156 74.5938 274.969 74.2344L275.141 75.4062C273.203 75.8281 271.5 75.8906 268.562 75.8906H267.453V70.1094H273.703ZM277.859 69.3281V72.1875H279.891V73.4062H277.859V76.3594H276.375V69.3281H277.859ZM277.859 77.0156V80.5938H270.297V81.9531H278.344V83.1562H268.844V79.4531H276.391V78.2031H268.812V77.0156H277.859ZM292.625 69.3438V77.6562H291.219V74.0156H289.5V77.5H288.109V69.5938H289.5V72.7969H291.219V69.3438H292.625ZM292.625 78.2812V83.1562H283.266V78.2812H292.625ZM284.75 79.4688V81.9531H291.172V79.4688H284.75ZM286.594 70.2188V74.1562H282.75V75.9062C284.484 75.8906 285.805 75.8125 287.344 75.5156L287.5 76.7031C285.734 77.0312 284.281 77.0781 282.234 77.0781H281.312V73.0156H285.172V71.4062H281.281V70.2188H286.594ZM302.312 70.8281V71.6875C302.312 72.8594 302.312 74.6719 301.906 77.1719L300.438 77.0625C300.789 74.8203 300.828 73.2031 300.844 72.0312H295.156V70.8281H302.312ZM298.719 74.8281V79.0156C300.211 78.9688 301.727 78.8672 303.125 78.6875L303.203 79.7969C300.281 80.2656 297.031 80.3281 294.547 80.3125L294.375 79.1094C295.25 79.1016 296.227 79.0938 297.25 79.0625V74.8281H298.719ZM305.422 69.3281V75.1094H307.562V76.375H305.422V83.3281H303.922V69.3281H305.422ZM323.25 69.3281V72.9531H325.281V74.2188H323.25V77.7656H321.766V69.3281H323.25ZM323.25 78.5V83.1562H314.312V78.5H323.25ZM315.766 79.6719V81.9531H321.781V79.6719H315.766ZM320.609 70.75V71.9375H312.266V70.75H315.703V69.2188H317.188V70.75H320.609ZM316.438 72.5469C318.453 72.5469 319.828 73.5469 319.828 75.0469C319.828 76.5625 318.453 77.5469 316.438 77.5625C314.391 77.5469 313.031 76.5625 313.031 75.0469C313.031 73.5469 314.391 72.5469 316.438 72.5469ZM316.438 73.6875C315.25 73.6719 314.453 74.2031 314.469 75.0469C314.453 75.9219 315.25 76.4375 316.438 76.4375C317.625 76.4375 318.422 75.9219 318.438 75.0469C318.422 74.2031 317.625 73.6719 316.438 73.6875ZM329.547 70.9844C329.531 74.125 329.141 77.3594 327.188 80.1094L326.031 79.4531C327.664 77.2656 328.156 74.8438 328.266 72.2031H326.359V70.9844H329.547ZM332.656 70.9844C332.656 72.1641 332.633 73.4531 332.484 74.75H334.125V69.6875H335.531V82.6406H334.125V75.9531H332.312C331.992 77.6953 331.406 79.4219 330.328 80.9531L329.172 80.2812C330.984 77.8516 331.312 74.9062 331.375 72.2031H329.969V70.9844H332.656ZM338.188 69.3281V83.3281H336.766V69.3281H338.188ZM350.734 71.6406V72.8438H343.781V71.6406H346.531V69.7344H348V71.6406H350.734ZM347.266 73.6875C349.047 73.6875 350.297 75.0156 350.312 76.9062C350.297 78.8125 349.047 80.1562 347.266 80.1562C345.516 80.1562 344.219 78.8125 344.234 76.9062C344.219 75.0156 345.516 73.6875 347.266 73.6875ZM347.266 74.9219C346.25 74.9219 345.547 75.75 345.547 76.9062C345.547 78.0938 346.25 78.8906 347.266 78.8906C348.266 78.8906 349 78.0938 349 76.9062C349 75.75 348.266 74.9219 347.266 74.9219ZM355.797 69.3281V83.3281H354.391V76.375H352.781V82.6719H351.375V69.6406H352.781V75.1562H354.391V69.3281H355.797ZM370.453 80.3594V81.5938H357.641V80.3594H363.281V77.4844H359.109V70.2812H360.594V72.6875H367.469V70.2812H368.938V77.4844H364.75V80.3594H370.453ZM360.594 76.2812H367.469V73.8906H360.594V76.2812ZM375.734 73.1562C375.734 75.3906 376.672 77.7812 378.547 78.9219L377.719 80.0625C376.406 79.2734 375.516 77.875 375.047 76.25C374.523 78.0312 373.562 79.5469 372.203 80.375L371.281 79.2656C373.266 78.0781 374.297 75.6094 374.297 73.2188V70.6094H375.734V73.1562ZM383.516 69.3281V83.3281H382.094V69.3281H383.516ZM380.609 69.5938V82.6406H379.203V75.4844H377.031V74.25H379.203V69.5938H380.609ZM398.109 80.3438V81.5781H385.297V80.3438H388.359V76.6875C387.211 76.0547 386.516 75.0469 386.516 73.7969C386.516 71.5938 388.672 70.1406 391.672 70.1406C394.688 70.1406 396.844 71.5938 396.844 73.7969C396.844 75.0312 396.172 76.0234 395.047 76.6562V80.3438H398.109ZM391.672 71.3281C389.469 71.3281 387.953 72.2812 387.953 73.7969C387.953 75.2969 389.469 76.2812 391.672 76.2812C393.859 76.2812 395.406 75.2969 395.406 73.7969C395.406 72.2812 393.859 71.3281 391.672 71.3281ZM389.828 80.3438H393.547V77.2188C392.977 77.3672 392.344 77.4375 391.672 77.4375C391.016 77.4375 390.391 77.3672 389.828 77.2344V80.3438Z" fill="#1F2937"/>
<path d="M485.825 206.31C478.447 210.335 474.554 220.088 474.349 234.957C474.144 246.279 475.715 246.416 484.8 236.048C495.115 224.249 499.418 211.835 494.705 207.197C492.86 205.356 488.352 204.878 485.825 206.31ZM491.631 208.902C493.339 210.607 493.475 214.973 491.972 219.133C490.675 222.816 485.756 230.046 481.385 234.821L477.901 238.572L478.242 231.41C478.857 219.815 481.658 212.517 486.781 209.107C489.582 207.197 489.923 207.197 491.631 208.902Z" fill="#1F2937"/>
<path d="M448.389 230.933C443.676 235.571 444.291 248.871 450.029 266.673C452.01 272.743 452.214 273.084 453.854 272.88C455.425 272.675 455.903 271.993 457.269 267.901C460.07 259.716 461.709 251.736 461.778 245.734C461.983 235.366 459.25 230.251 453.171 229.569C450.507 229.228 449.824 229.432 448.389 230.933ZM454.947 233.32C458.704 237.481 459.182 246.348 456.313 258.079C455.288 262.171 454.264 265.513 453.99 265.513C453.444 265.513 452.078 261.216 450.234 253.577C448.662 247.098 448.662 237.208 450.165 234.275C451.531 231.82 453.239 231.479 454.947 233.32Z" fill="#1F2937"/>
<path d="M482.408 259.307C477.353 261.694 472.23 268.105 466.766 279.086C463.555 285.361 458.842 296.479 458.842 297.639C458.842 300.162 469.908 295.115 478.651 288.635C488.761 281.133 493.269 274.312 493.338 266.4C493.338 262.717 493.064 261.899 491.562 260.398C489.239 258.079 485.824 257.67 482.408 259.307ZM488.624 262.171C491.971 265.854 488.693 275.131 481.589 282.019C477.285 286.248 464.785 294.569 464.443 293.546C464.033 292.387 472.094 276.29 475.714 270.902C479.539 265.241 484.116 260.739 486.029 260.739C486.78 260.739 487.873 261.353 488.624 262.171Z" fill="#1F2937"/>
<path d="M435.138 322.739C424.755 324.444 416.148 328.673 408.976 335.766C403.374 341.291 400.779 346.133 400.779 351.317C400.779 356.023 402.35 359.297 405.697 361.753C411.503 365.913 419.222 365.709 425.097 361.275L428.102 358.956L428.512 361.753C429.059 365.027 431.244 368.505 433.567 369.665C437.802 371.779 445.384 369.869 448.868 365.709C450.576 363.731 450.576 363.731 451.327 365.095C451.942 366.254 451.805 367.482 450.644 370.756C444.155 390.058 418.607 409.361 381.516 423.07C373.797 425.867 371.201 427.845 375.163 427.845C378.032 427.845 393.606 421.706 404.877 416.181C429.4 404.177 449.21 386.784 453.65 373.416L454.811 370.074L458.841 370.142C461.232 370.142 463.213 369.869 463.759 369.324C466.423 366.664 466.218 369.46 463.213 378.531C455.767 400.903 441.491 419.523 422.023 432.483C416.9 435.893 416.421 436.37 417.719 436.916C418.812 437.393 420.042 436.984 423.321 435.006C437.87 426.208 452.83 409.702 460.959 393.673C463.759 388.08 469.087 373.348 469.087 371.165C469.087 369.528 469.907 369.528 471.478 371.233C474.62 374.712 481.246 374.371 485.208 370.483L487.462 368.3L488.419 370.688C488.965 372.052 489.785 373.348 490.195 373.552C491.151 374.166 491.151 382.215 490.263 388.626C487.257 409.429 476.123 428.186 459.934 439.712C455.152 443.123 454.743 443.805 456.587 444.487C458.09 445.101 463.896 441.077 470.385 435.006C484.798 421.501 493.269 403.222 494.157 383.988L494.566 376.008H497.914C501.671 376.008 505.974 374.166 507.613 371.779C510.346 367.959 507.34 367.277 503.72 370.892C501.739 372.87 500.851 373.28 498.323 373.28C495.864 373.28 494.908 372.87 493.269 371.165C491.356 369.187 491.288 368.846 491.288 362.639C491.288 356.228 491.288 356.16 489.648 356.364C488.35 356.501 487.804 357.319 486.848 360.457C485.618 364.481 483.432 368.096 481.11 370.006C477.353 373.075 472.708 369.869 471.956 363.662C471.683 361.616 471.683 358.274 471.888 356.228C472.093 354.182 472.161 352.272 472.025 351.931C471.546 351.112 469.087 351.385 468.814 352.272C468.677 352.749 467.994 355.273 467.38 357.865C465.877 363.662 462.393 367.823 458.978 367.823C455.835 367.823 454.538 365.436 454.059 358.683C453.786 353.909 453.513 353.159 452.488 353.159C451.6 353.159 450.849 354.182 449.893 356.91C446.614 366.254 438.963 370.824 434.318 366.186C432.611 364.481 432.542 364.003 432.474 357.387C432.474 351.59 432.269 350.362 431.381 350.226C430.766 350.089 429.742 350.84 428.99 351.863C424.004 359.093 418.197 362.98 413.689 362.094C407.883 360.934 403.648 355.341 404.467 349.885C405.97 340.609 417.719 330.105 430.835 326.49C436.982 324.785 459.661 324.717 468.882 326.49C481.11 328.741 489.853 332.015 498.187 337.539C509.048 344.701 514.717 352.886 516.698 364.14C520.319 385.079 507.545 417.682 488.35 436.302C484.73 439.781 484.457 440.804 487.052 440.804C489.58 440.804 498.733 430.709 504.813 421.297C520.455 397.084 525.374 367.755 516.493 351.522C509.184 338.085 492.039 327.991 469.77 324.035C461.164 322.534 441.286 321.784 435.138 322.739Z" fill="#1F2937"/>
<path d="M134.486 236.308C118.835 238.665 110.885 240.897 99.9542 246.045C89.8928 250.82 82.9988 255.657 75.1111 263.471C64.118 274.323 58.0936 284.742 54.2429 299.749C52.8765 304.959 52.3797 308.556 52.3176 313.083L52.1934 319.284L79.7071 319.47L107.159 319.594V315.129C107.221 297.455 117.593 283.005 133.617 278.292C138.088 276.99 147.653 276.804 152.497 277.982C157.528 279.223 164.36 282.509 168.645 285.796C171.813 288.215 179.204 296.339 179.204 297.393C179.204 297.579 177.154 297.827 174.608 298.013C163.863 298.695 156.41 306.633 156.969 316.679L157.155 319.904L209.264 320.09C247.212 320.152 261.559 320.028 262.18 319.532C263.546 318.416 263.298 309.982 261.807 305.207C258.702 295.098 249.261 290.695 239.883 294.974L236.343 296.587V292.742C236.281 284.246 233.051 274.882 228.269 269.734C222.865 263.905 213.611 261.3 205.91 263.409L202.494 264.339L201.314 262.665C199.016 259.502 190.694 251.626 186.719 248.959C177.278 242.572 164.857 238.045 152.808 236.556C147.529 235.936 137.84 235.75 134.486 236.308ZM160.447 239.533C169.888 241.89 179.701 246.603 186.719 252.122C193.551 257.455 200.755 265.579 199.14 266.137C198.706 266.261 197.401 267.254 196.221 268.246L194.11 270.106L191.19 267.688C177.775 256.773 163.18 250.758 145.541 248.835C130.511 247.285 113.928 250.882 100.824 258.634C82.0051 269.858 68.4656 291.005 66.2918 312.773L65.8571 317.424L60.9506 317.61C58.2178 317.734 55.7956 317.548 55.4851 317.238C54.6777 316.431 55.9819 305.269 57.5346 299.377C63.5591 276.246 78.527 258.696 101.196 247.967C111.009 243.316 122.624 239.719 132.25 238.355C138.772 237.425 154.609 238.107 160.447 239.533ZM146.287 251.006C159.453 251.936 176.098 258.882 188.023 268.494L192.246 271.905L190.01 275.254L187.712 278.664L184.855 276.246C173.738 267.006 161.689 262.975 145.355 263.037C129.58 263.099 114.363 267.874 103.184 276.308C93.1845 283.812 85.4831 297.021 83.5578 309.982C83.123 312.71 82.6883 315.563 82.564 316.307C82.3156 317.672 82.0672 317.734 75.7322 317.734H69.0867L69.5214 313.827C70.8878 301.92 74.7385 291.191 81.1356 281.517C93.2466 263.285 111.506 252.432 132.623 250.82C135.542 250.572 138.772 250.448 139.765 250.572C140.821 250.634 143.74 250.82 146.287 251.006ZM219.325 266.323C223.114 267.874 226.778 271.843 229.2 276.866C231.561 281.889 232.616 287.098 232.803 295.408C232.927 302.354 233.486 302.85 237.461 299.501C242.554 295.284 248.64 294.292 252.429 297.145C254.975 299.005 257.956 303.284 258.764 306.137C259.198 307.563 259.571 310.664 259.571 313.083L259.633 317.424L209.699 317.61L159.764 317.734L160.199 314.819C160.758 310.54 163.553 305.393 166.596 303.098C171.192 299.625 176.781 299.067 184.607 301.362C186.284 301.858 186.284 301.858 187.216 294.478C189.327 278.416 197.401 266.82 207.711 265.021C211.376 264.339 216.034 264.897 219.325 266.323ZM159.64 266.261C167.652 267.998 176.533 272.525 182.185 277.734C186.346 281.579 186.532 281.951 185.973 283.502C185.042 285.92 183.551 293.3 183.551 295.47C183.551 297.765 182.868 297.765 181.502 295.47C176.098 286.292 164.112 278.168 152.497 275.812C138.461 273.021 122.624 277.982 113.68 288.153C108.215 294.354 103.494 306.943 103.432 315.377V317.734H94.6751H85.8558L86.2905 313.703C86.8495 308.183 89.3959 299.687 92.0044 294.788C102.004 275.688 121.071 265.145 145.666 265.083C151.752 265.083 155.541 265.393 159.64 266.261Z" fill="#1F2937"/>
<path d="M201.35 162.524C200.169 162.241 199.089 162.924 198.141 164.443C197.035 166.214 196.868 170.026 197.653 175.936C198.311 181.164 198.949 181.511 202.668 178.856C204.186 177.793 206.621 175.744 208.116 174.315C210.601 171.946 210.781 171.657 211.064 170.076C211.302 168.567 211.175 168.287 210.017 167.566C208.677 166.733 206.47 166.966 205.156 168.105C204.243 168.842 203.89 168.522 204.096 167.145C204.239 166.029 203.16 163.249 202.39 162.87C202.209 162.758 201.707 162.596 201.35 162.524ZM201.633 168.674C201.271 171.912 201.367 172.725 201.991 173.013C202.58 173.279 203.267 172.903 204.753 171.569C206.939 169.516 208.426 168.584 208.933 168.9C209.802 169.441 206.482 173.148 202.145 176.472L200.017 178.109L199.53 175.346C198.787 170.818 199.616 164.658 201.063 164.353C201.967 164.113 202.072 164.831 201.633 168.674Z" fill="#1F2937"/>
<path d="M190.896 186.037C190.055 186.417 189.518 187.036 188.963 188.247L188.21 189.937L186.128 188.44C184.335 187.124 183.892 186.948 182.622 187.212C179.927 187.744 179.492 190.535 181.549 193.924C182.632 195.652 185.775 198.913 188.844 201.325L190.75 202.862L191.382 201.85C192.149 200.621 194.059 194.983 194.671 192.151C195.575 188.045 193.581 184.796 190.896 186.037ZM192.103 192.962C191.662 194.796 190.942 197.159 190.463 198.166C189.643 199.965 189.597 200.037 188.692 199.474C187.28 198.595 183.852 194.503 182.954 192.639C182.002 190.541 182.258 189.244 183.736 188.809C185.097 188.401 185.4 188.64 186.787 191.009C187.412 192.101 188.25 193.175 188.685 193.445C189.3 193.828 189.463 193.729 189.824 192.748C190.054 192.138 190.716 190.593 191.353 189.333L192.526 187.051L192.731 188.333C192.858 189.015 192.567 191.092 192.103 192.962Z" fill="#1F2937"/>
<path d="M207.396 215.179C206.704 215.401 205.918 216.016 205.376 216.884C204.541 218.221 204.46 218.271 203.749 217.477C202.39 216.029 200.879 215.39 199.649 215.83C196.264 216.985 197.462 220.944 202.955 226.722C204.386 228.215 205.799 229.496 206.12 229.545C206.93 229.697 210.256 224.288 211.012 221.546C212.057 217.779 210.131 214.421 207.396 215.179ZM208.331 221.734C207.799 223.311 206.947 225.24 206.428 226.072C205.548 227.482 205.489 227.495 204.683 226.693C202.826 224.835 200.855 221.951 200.397 220.511C199.339 217.293 201.418 215.976 202.824 218.96C204.093 221.758 204.451 222.231 205.071 222.366C205.428 222.438 205.776 222.203 205.857 221.751C206.113 220.455 207.665 217.405 208.347 216.876C208.984 216.419 209.034 216.5 209.176 217.642C209.267 218.301 208.899 220.18 208.331 221.734Z" fill="#1F2937"/>
<path d="M121.581 102.692C121.201 103.324 118.733 113.812 118.67 114.949C118.67 115.265 119.429 115.391 120.378 115.265C121.96 115.076 122.15 114.696 123.226 110.021C124.871 102.692 124.871 102.502 123.289 102.249C122.593 102.123 121.771 102.313 121.581 102.692Z" fill="#1F2937" stroke="#1F2937" stroke-width="0.842197"/>
<path d="M90.1934 106.23C90.1934 106.483 91.5222 108.884 93.1674 111.664C95.5087 115.455 96.5211 116.655 97.5968 116.655C98.3562 116.655 99.1155 116.465 99.242 116.15C99.4319 115.897 98.2296 113.559 96.5844 110.969C94.2431 107.178 93.294 106.167 91.9019 106.04C90.9527 105.914 90.1934 106.04 90.1934 106.23Z" fill="#1F2937" stroke="#1F2937" stroke-width="0.842197"/>
<path d="M142.209 119.814C139.298 121.836 136.957 123.731 136.957 124.047C136.957 124.3 137.653 124.616 138.412 124.742C139.931 124.869 149.676 118.298 150.182 116.781C150.752 114.949 147.145 116.339 142.209 119.814Z" fill="#1F2937" stroke="#1F2937" stroke-width="0.842197"/>
<path d="M108.607 130.302C102.849 131.819 98.9259 135.547 96.458 141.739C95.2558 144.771 95.0026 146.604 95.0026 152.669C94.9394 159.114 95.1292 160.314 96.5213 163.094C100.191 170.55 107.215 174.909 115.821 174.909C129.805 175.036 139.36 166.569 138.031 155.323C136.829 144.961 126.895 138.579 116.707 141.486C110.949 143.192 107.721 147.488 107.721 153.427C107.721 156.271 108.038 157.534 109.367 159.556C113.1 165.179 120.124 166.064 124.047 161.452C126.641 158.356 125.882 153.301 122.845 153.301C120.757 153.301 120.567 153.806 121.706 155.828C122.528 157.282 122.592 157.913 121.959 159.24C121.263 160.757 120.883 160.883 117.466 160.883C114.112 160.883 113.67 160.693 112.594 159.177C111.138 156.966 110.695 151.974 111.708 149.51C113.48 145.277 119.618 141.991 123.92 142.939C127.021 143.571 130.501 146.098 132.4 148.941C134.867 152.669 135.247 158.987 133.222 163.031C130.248 169.223 123.667 172.888 115.568 172.888C108.164 172.888 103.165 169.539 99.9383 162.462C97.0908 156.144 97.4705 147.678 100.887 140.285C103.988 133.588 108.164 131.566 117.909 131.882C124.87 132.135 126.578 131.25 121.2 130.113C116.454 129.165 112.657 129.228 108.607 130.302Z" fill="#1F2937" stroke="#1F2937" stroke-width="0.842197"/>
<path d="M69.3125 134.599C69.3125 135.989 69.6922 136.052 78.0448 136.557C84.0562 136.873 85.1319 136.81 85.1319 135.989C85.1319 134.599 84.8155 134.536 76.7792 134.03C70.1351 133.651 69.3125 133.714 69.3125 134.599Z" fill="#1F2937" stroke="#1F2937" stroke-width="0.842197"/>
<path d="M158.343 136.305C157.71 136.684 155.052 137.379 152.395 137.821C147.396 138.706 146.573 139.085 147.522 140.033C148.851 141.359 162.329 138.2 162.329 136.494C162.329 135.42 159.988 135.357 158.343 136.305Z" fill="#1F2937" stroke="#1F2937" stroke-width="0.842197"/>
<path d="M150.942 164.99C150.372 165.685 150.562 166.064 152.081 166.822C155.751 168.718 163.661 171.624 165.179 171.624C167.078 171.624 167.9 170.487 166.318 169.981C164.926 169.539 157.08 166.443 153.979 165.053C152.017 164.232 151.575 164.232 150.942 164.99Z" fill="#1F2937" stroke="#1F2937" stroke-width="0.842197"/>
<path d="M80.3865 168.402C78.9944 169.034 75.8938 170.044 73.4259 170.676C68.5536 171.94 67.288 172.635 68.8067 173.204C70.8316 174.025 86.3978 169.16 86.3978 167.77C86.3978 166.822 83.1074 167.201 80.3865 168.402Z" fill="#1F2937" stroke="#1F2937" stroke-width="0.842197"/>
<path d="M136.703 182.365C136.196 183.123 137.652 184.387 143.473 188.494C147.08 190.958 147.966 191.337 149.168 190.768C150.497 190.2 150.371 190.073 147.397 188.052C145.688 186.851 143.157 184.956 141.702 183.818C139.044 181.67 137.399 181.228 136.703 182.365Z" fill="#1F2937" stroke="#1F2937" stroke-width="0.842197"/>
<path d="M95.3196 195.381C93.6744 200.814 93.4212 202.268 94.1173 202.647C95.2563 203.405 95.636 203.342 96.332 202.394C97.2179 201.32 100.888 189.441 100.445 188.999C100.255 188.81 99.4959 188.683 98.7366 188.683C97.5343 188.683 97.0913 189.568 95.3196 195.381Z" fill="#1F2937" stroke="#1F2937" stroke-width="0.842197"/>
<path d="M119.554 190.895C119.048 192.095 120.25 198.034 121.579 201.194C122.275 202.836 122.781 203.279 123.857 203.089C125.502 202.836 125.502 202.899 123.604 195.633C122.528 191.779 121.832 190.2 121.009 190.073C120.44 189.947 119.744 190.326 119.554 190.895Z" fill="#1F2937" stroke="#1F2937" stroke-width="0.842197"/>
<path d="M53.5938 476.172H80.655H134.385V484.171H53.5938V476.172Z" fill="#EA580C"/>
<path d="M80.791 476.171L82.3908 436.976H137.185L134.385 476.171H80.791Z" fill="#FB923C"/>
<path d="M86.791 471.372L88.7908 442.175H131.586L129.187 471.372H86.791Z" fill="#FFEDD5"/>
<rect x="177.402" y="444.17" width="157.907" height="17.5452" fill="#F97316"/>
<rect x="177.402" y="461.715" width="15.5957" height="97.4733" fill="#F97316"/>
<rect x="237.834" y="461.715" width="15.5957" height="97.4733" fill="#F97316"/>
<rect x="335.309" y="461.715" width="15.5957" height="97.4733" fill="#FDBA74"/>
<rect x="403.539" y="461.715" width="15.5957" height="97.4733" fill="#FDBA74"/>
<rect x="335.309" y="444.17" width="83.827" height="17.5452" fill="#FDBA74"/>
<rect y="412.978" width="72.1302" height="71.1555" fill="#F97316"/>
<rect y="484.134" width="72.1302" height="17.5452" fill="#FDBA74"/>
<rect x="72.1289" y="484.134" width="46.7872" height="17.5452" fill="#F97316"/>
<rect x="56.5352" y="501.679" width="15.5957" height="58.484" fill="#F97316"/>
<rect y="501.679" width="15.5957" height="58.484" fill="#F97316"/>
<rect x="103.322" y="501.679" width="15.5957" height="58.484" fill="#F97316"/>
<path d="M577.94 514.366C567.381 515.006 567.674 498.101 569.14 489.568V487.569L582.339 489.168L587.139 501.167C588.472 505.3 588.498 513.726 577.94 514.366Z" fill="#1F2937"/>
<path d="M573.541 477.57C546.983 474.69 536.878 505.967 535.145 521.965H546.343C549.41 511.299 558.422 490.048 569.941 490.368C581.46 490.688 586.206 498.501 587.139 502.367C586.473 494.635 582.82 478.85 573.541 477.57Z" fill="#26A275"/>
<path d="M506.747 429.175C492.989 430.775 506.081 491.435 514.346 521.565H523.146C523.412 490.102 520.506 427.575 506.747 429.175Z" fill="#26A275"/>
<path d="M537.145 521.965H526.746C530.612 485.836 526.746 415.976 552.343 420.376C566.049 422.731 547.544 490.368 537.145 521.965Z" fill="#26A275"/>
<path d="M496.35 492.768C498.616 493.168 505.149 497.168 506.749 509.966C508.348 522.765 506.882 524.631 506.749 523.965" stroke="#1F2937" stroke-width="2.27613" stroke-linecap="round"/>
<path d="M559.941 464.771C555.385 465.568 542.251 473.537 539.035 499.039C535.818 524.541 538.767 528.26 539.035 526.932" stroke="#1F2937" stroke-width="2.27613" stroke-linecap="round"/>
<circle cx="565.941" cy="459.572" r="10.7989" fill="#EA580C"/>
<circle cx="489.949" cy="485.969" r="10.7989" fill="#EA580C"/>
<rect x="489.549" y="521.565" width="79.9917" height="39.1959" rx="19.598" fill="#FB923C"/>
<path d="M122.813 322.034C122.985 321.718 123.439 321.718 123.612 322.034C126.398 327.128 130.586 331.316 135.68 334.102C135.996 334.275 135.996 334.729 135.68 334.901C130.586 337.687 126.398 341.876 123.612 346.97C123.439 347.286 122.985 347.286 122.813 346.97C120.027 341.876 115.838 337.687 110.744 334.901C110.428 334.729 110.428 334.275 110.744 334.102C115.838 331.316 120.027 327.128 122.813 322.034Z" fill="#FB923C"/>
<path d="M421.553 172.189C421.726 171.873 422.179 171.873 422.352 172.189C425.138 177.283 429.327 181.471 434.421 184.257C434.736 184.43 434.736 184.883 434.421 185.056C429.327 187.842 425.138 192.031 422.352 197.125C422.179 197.441 421.726 197.441 421.553 197.125C418.767 192.031 414.579 187.842 409.484 185.056C409.169 184.883 409.169 184.43 409.484 184.257C414.579 181.471 418.767 177.283 421.553 172.189Z" fill="#FB923C"/>
<path d="M422.8 505.251C413.201 498.318 396.403 476.854 409.202 471.254C421.042 466.074 424.934 491.652 422.8 505.251Z" fill="#339C73"/>
<path d="M427.598 504.451C427.998 496.185 430.877 480.373 439.196 483.253C447.516 486.133 434.93 498.585 427.598 504.451Z" fill="#339C73"/>
<path d="M422.8 513.65C423.2 509.117 423.28 499.092 420.4 495.252" stroke="#1F2937" stroke-width="2.27613" stroke-linecap="round"/>
<path d="M426.985 513.25C426.616 510.688 426.542 505.021 429.197 502.851" stroke="#1F2937" stroke-width="2.27613" stroke-linecap="round"/>
<path d="M451.996 513.65H398.802C397.335 529.515 391.603 561.245 427.199 561.245C453.436 561.245 454.662 529.515 451.996 513.65Z" fill="#EA580C"/>
<path fill-rule="evenodd" clip-rule="evenodd" d="M326.553 253.6C320.597 266.503 307.544 275.457 292.4 275.457C276.307 275.457 262.575 265.345 257.212 251.128C250.335 251.076 244.777 245.485 244.777 238.597C244.777 231.884 250.055 226.404 256.687 226.08C261.63 211.087 275.751 200.265 292.4 200.265C309.984 200.265 324.748 212.336 328.858 228.644C335.136 229.326 340.022 234.643 340.022 241.102C340.022 248.024 334.411 253.634 327.49 253.634C327.175 253.634 326.862 253.623 326.553 253.6Z" fill="#FED7AA"/>
<path fill-rule="evenodd" clip-rule="evenodd" d="M289.077 236.182C287.922 233.737 285.312 232.042 282.224 232.042C280.896 232.042 278.844 232.929 277.999 234.371C277.878 234.704 277.395 234.704 277.274 234.371C276.309 233.04 274.377 232.153 272.928 232.153C268.944 232.153 265.564 235.148 265.443 238.808V239.03C265.443 240.916 266.288 242.69 267.737 244.022V244.132C267.858 244.243 273.653 248.902 276.309 251.01C277.033 251.564 278.12 251.564 278.844 251.01C279.96 250.124 281.608 248.789 283.162 247.529L283.162 247.529C285.308 245.791 287.275 244.197 287.415 244.132V244.022C288.864 242.801 289.709 241.027 289.709 239.03V238.808C289.709 238.806 289.709 238.803 289.709 238.8C290.506 238.67 291.399 238.596 292.4 238.596C294.126 238.596 295.533 238.816 296.675 239.165C296.626 239.445 296.596 239.73 296.586 240.019V240.241C296.586 242.126 297.431 243.901 298.88 245.232V245.343C299.001 245.454 304.796 250.113 307.452 252.22C308.176 252.775 309.263 252.775 309.987 252.22C311.103 251.335 312.751 250 314.305 248.74L314.305 248.74C316.451 247.001 318.418 245.407 318.558 245.343V245.232C320.007 244.012 320.852 242.237 320.852 240.241V240.019C320.732 236.247 317.472 233.252 313.367 233.252C312.039 233.252 309.987 234.14 309.142 235.582C309.021 235.915 308.538 235.915 308.417 235.582C307.452 234.251 305.52 233.363 304.071 233.363C301.432 233.363 299.057 234.678 297.72 236.63C296.428 236.225 294.696 235.957 292.4 235.957C291.126 235.957 290.025 236.04 289.077 236.182Z" fill="#EA580C"/>
<path d="M286.133 253.502C286.551 254.337 288.389 256.008 292.399 256.008C296.409 256.008 298.247 254.337 298.665 253.502" stroke="#EA580C" stroke-width="2.27613" stroke-linecap="round" stroke-linejoin="round"/>
<path d="M286.311 206.095C284.996 207.125 282.929 211.276 284.068 214.197C285.207 217.117 286.988 217.841 287.892 218.073" stroke="#EA580C" stroke-width="2.27613" stroke-linecap="round"/>
<path d="M294.357 208.463C293.04 209.361 292.094 213.222 293.355 215.92C294.293 217.928 296.694 218.708 297.458 218.904" stroke="#EA580C" stroke-width="2.27613" stroke-linecap="round"/>
<path d="M301 209.835C300.369 210.662 300.832 213.045 301.915 214.659C302.556 215.612 304.495 217.005 305.008 216.97" stroke="#EA580C" stroke-width="2.27613" stroke-linecap="round"/>
<rect x="262.379" y="279.392" width="63.1934" height="139.985" rx="31.5967" fill="#FED7AA"/>
<rect x="167.988" y="384.181" width="257.573" height="59.9937" rx="29.9969" fill="#319E73"/>
<path d="M346.77 395.38H242.381" stroke="#1F2937" stroke-width="2.27613"/>
<path d="M313.172 420.177C313.172 433.431 303.03 444.175 293.974 444.175C284.917 444.175 275.176 433.431 275.176 420.177C275.176 406.924 284.917 396.18 293.974 396.18C303.03 396.18 313.172 406.924 313.172 420.177Z" fill="#FDBA74"/>
<path d="M293.977 396.18V444.175" stroke="#1F2937" stroke-width="2.27613"/>
<path d="M336.771 298.604C324.612 282.605 304.508 279.139 295.975 279.406L323.973 342.999C325.839 350.465 331.012 367.477 336.771 375.796C342.531 384.115 373.434 388.447 390.766 394.58L412.363 371.396L363.568 346.599C359.702 337.266 348.93 314.602 336.771 298.604Z" fill="#FED7AA"/>
<path fill-rule="evenodd" clip-rule="evenodd" d="M432.283 390.554C434.219 390.168 435.972 388.941 436.939 387.073L437.658 385.682C439.317 382.476 438.031 378.594 434.786 377.012L424.191 371.848C423.455 371.391 422.681 370.957 421.882 370.532C423.204 369.101 423.902 367.112 423.613 365.057L423.396 363.506C422.895 359.931 419.6 357.508 416.038 358.095L403.125 360.222C400.094 360.521 392.807 360.317 389.31 360.165L389.313 360.2C389.298 360.197 389.284 360.195 389.269 360.193L374.999 389.78C377.077 394.297 379.829 398.778 383.013 402.74C383.266 403.156 383.577 403.56 383.952 403.946L384.45 404.458C387.158 407.569 390.132 410.283 393.238 412.336C396.137 414.505 399.22 416.439 402.458 418.117L404.654 419.255C407.698 420.833 411.493 419.834 413.359 416.966L414.468 415.259C415.021 414.409 415.348 413.483 415.464 412.549L417.112 413.374C420.34 414.991 424.33 413.716 426.023 410.527L426.757 409.144C427.571 407.613 427.706 405.918 427.27 404.392C430.411 405.682 434.116 404.381 435.731 401.339L436.465 399.957C438.159 396.768 436.914 392.872 433.685 391.256L432.283 390.554Z" fill="#FED7AA"/>
<path d="M421.898 370.56C419.916 371.322 415.415 372.819 413.274 372.707" stroke="#1F2937" stroke-width="2.27613" stroke-linecap="round"/>
<path d="M432.41 390.357C429.057 389.29 421.799 386.841 419.587 385.589" stroke="#1F2937" stroke-width="2.27613" stroke-linecap="round"/>
<path d="M427.311 404.693C424.153 403.143 417.335 399.65 415.331 398.085" stroke="#1F2937" stroke-width="2.27613" stroke-linecap="round"/>
<path d="M415.259 413.015C412.274 411.153 405.845 406.988 404.01 405.228" stroke="#1F2937" stroke-width="2.27613" stroke-linecap="round"/>
<path d="M251.012 298.604C263.171 282.605 283.275 279.139 291.808 279.406L263.811 342.999C261.944 350.465 256.771 367.477 251.012 375.796C245.253 384.115 214.349 388.447 197.018 394.58L175.42 371.396L224.215 346.599C228.081 337.266 238.853 314.602 251.012 298.604Z" fill="#FED7AA"/>
<path fill-rule="evenodd" clip-rule="evenodd" d="M155.501 390.554C153.564 390.168 151.811 388.941 150.844 387.073L150.125 385.682C148.466 382.476 149.752 378.594 152.998 377.012L163.592 371.848C164.328 371.391 165.103 370.957 165.901 370.532C164.579 369.101 163.882 367.112 164.17 365.057L164.387 363.506C164.888 359.931 168.183 357.508 171.745 358.095L184.658 360.222C187.689 360.521 194.976 360.317 198.473 360.165L198.47 360.2C198.485 360.197 198.5 360.195 198.514 360.193L212.784 389.78C210.707 394.297 207.954 398.778 204.77 402.74C204.518 403.156 204.206 403.56 203.831 403.946L203.333 404.458C200.625 407.569 197.651 410.283 194.545 412.336C191.646 414.505 188.563 416.439 185.325 418.117L183.129 419.255C180.085 420.833 176.29 419.834 174.425 416.966L173.315 415.259C172.762 414.409 172.436 413.483 172.319 412.549L170.672 413.374C167.443 414.991 163.453 413.716 161.76 410.527L161.026 409.144C160.213 407.613 160.077 405.918 160.513 404.392C157.373 405.682 153.667 404.381 152.052 401.339L151.318 399.957C149.625 396.768 150.869 392.872 154.098 391.256L155.501 390.554Z" fill="#FED7AA"/>
<path d="M165.885 370.56C167.867 371.322 172.368 372.819 174.509 372.707" stroke="#1F2937" stroke-width="2.27613" stroke-linecap="round"/>
<path d="M155.373 390.357C158.726 389.29 165.984 386.841 168.196 385.589" stroke="#1F2937" stroke-width="2.27613" stroke-linecap="round"/>
<path d="M160.472 404.693C163.63 403.142 170.449 399.65 172.452 398.085" stroke="#1F2937" stroke-width="2.27613" stroke-linecap="round"/>
<path d="M172.524 413.015C175.509 411.153 181.938 406.988 183.773 405.228" stroke="#1F2937" stroke-width="2.27613" stroke-linecap="round"/>
<path fill-rule="evenodd" clip-rule="evenodd" d="M292.053 295.94C299.563 295.94 305.652 289.852 305.652 282.342C305.652 281.667 305.602 281.004 305.508 280.355C315.197 282.194 327.981 287.237 336.69 298.726C348.848 314.768 359.621 337.493 363.487 346.85L336.69 376.125C332.289 369.752 328.231 358.29 325.728 349.897V384.181H262.535V347.709C260.123 356.183 255.733 369.177 250.936 376.125L224.139 346.85C228.005 337.493 238.777 314.768 250.936 298.726C258.598 288.617 269.416 283.499 278.505 281.162C278.472 281.551 278.454 281.944 278.454 282.342C278.454 289.852 284.543 295.94 292.053 295.94Z" fill="#8DD7E2"/>
<rect x="283.172" y="271.393" width="17.5982" height="14.3985" fill="#FED7AA"/>
<circle cx="36.5803" cy="391.965" r="19.198" transform="rotate(-22.9297 36.5803 391.965)" fill="#FFF7ED" stroke="#EA580C" stroke-width="3.99958"/>
<rect x="28.3965" y="376.27" width="2.2776" height="17.206" rx="1.1388" transform="rotate(-22.9297 28.3965 376.27)" fill="#EA580C"/>
<rect x="39.3574" y="381.159" width="2.23471" height="10.9619" rx="1.11735" transform="rotate(22.3107 39.3574 381.159)" fill="#EA580C"/>
<ellipse cx="2.01838" cy="2.01838" rx="2.01838" ry="2.01838" transform="matrix(0.920984 -0.389601 0.389602 0.920983 33.5957 389.845)" fill="#EA580C"/>
<path d="M305.568 280.192C305.568 287.702 299.48 295.39 291.97 295.39C284.459 295.39 278.371 288.591 278.371 280.992" stroke="#1F2937" stroke-width="2.27613"/>
<path d="M325.566 350.185C328.633 358.317 335.165 374.822 336.765 375.782C341.245 372.262 357.83 353.384 363.562 346.585L352.764 324.187" stroke="#1F2937" stroke-width="2.27613"/>
<path d="M325.566 350.185V372.982" stroke="#1F2937" stroke-width="2.27613"/>
<path d="M262.375 347.785C259.309 355.917 252.376 374.822 250.776 375.782C246.297 372.262 229.712 353.384 223.979 346.585L234.778 324.187" stroke="#1F2937" stroke-width="2.27613"/>
<path d="M262.375 348.185L261.975 372.982" stroke="#1F2937" stroke-width="2.27613"/>
</svg>
